<?xml version="1.0" encoding="UTF-8" standalone="no"?>
<!-- Created with Inkscape (http://www.inkscape.org/) -->

<svg
   width="210mm"
   height="210mm"
   viewBox="0 0 210 210"
   version="1.1"
   id="svg5"
   xml:space="preserve"
   inkscape:version="1.2.1 (9c6d41e410, 2022-07-14)"
   sodipodi:docname="favicon.svg"
   xmlns:inkscape="http://www.inkscape.org/namespaces/inkscape"
   xmlns:sodipodi="http://sodipodi.sourceforge.net/DTD/sodipodi-0.dtd"
   xmlns="http://www.w3.org/2000/svg"
   xmlns:svg="http://www.w3.org/2000/svg"><sodipodi:namedview
     id="namedview7"
     pagecolor="#ffffff"
     bordercolor="#666666"
     borderopacity="1.0"
     inkscape:showpageshadow="2"
     inkscape:pageopacity="0.0"
     inkscape:pagecheckerboard="0"
     inkscape:deskcolor="#d1d1d1"
     inkscape:document-units="mm"
     showgrid="false"
     inkscape:zoom="0.98636653"
     inkscape:cx="298.06364"
     inkscape:cy="479.53776"
     inkscape:window-width="1920"
     inkscape:window-height="1163"
     inkscape:window-x="0"
     inkscape:window-y="0"
     inkscape:window-maximized="1"
     inkscape:current-layer="layer1" /><defs
     id="defs2" /><g
     inkscape:label="Layer 1"
     inkscape:groupmode="layer"
     id="layer1"><path
       style="fill:#bfbfbf;stroke-width:0.170557"
       d="m 103.71993,191.82771 c -2.82975,-4.46495 -4.830471,-8.26045 -6.380287,-12.10379 -3.28258,-8.14037 -4.885405,-16.11042 -4.420593,-21.9814 0.403148,-5.0921 1.941111,-8.48626 4.75705,-10.49842 2.8913,-2.066 7.38662,-2.55286 11.89499,-1.28826 5.46248,1.53223 7.85456,6.19193 7.55828,14.72322 -0.30688,8.83641 -4.18715,20.22248 -10.17597,29.85992 -0.7296,1.17407 -1.49416,2.35684 -1.69905,2.62836 l -0.37251,0.49368 z m -49.0283,-12.7885 c -0.343339,-0.11546 -0.308278,-0.23969 1.076699,-3.81514 1.574489,-4.06468 2.578636,-6.12066 4.721658,-9.66755 2.962171,-4.90265 5.278786,-7.63156 7.525529,-8.86489 2.002898,-1.09947 3.277106,-1.33329 6.560773,-1.20391 1.615341,0.0636 3.277843,0.032 3.995687,-0.0761 1.851943,-0.27877 4.001534,-1.13366 6.289853,-2.50146 1.131267,-0.6762 2.125865,-1.22945 2.21022,-1.22945 0.322353,0 1.719219,1.62629 2.101171,2.44628 0.328118,0.70441 0.398698,1.11412 0.394001,2.28707 -0.0051,1.27368 -0.07046,1.57518 -0.601584,2.77494 -1.254644,2.83415 -2.877237,5.11689 -5.560025,7.8221 -5.56689,5.61342 -12.265498,9.29403 -20.050821,11.01711 -3.053885,0.6759 -7.9578,1.24816 -8.663161,1.01095 z m 99.12978,0.0254 c -1.66893,-0.10632 -4.95816,-0.60413 -6.96179,-1.05363 -8.78342,-1.97051 -15.97133,-6.19876 -21.87373,-12.8671 -1.9345,-2.18554 -2.80748,-3.50613 -3.76599,-5.69697 -1.22679,-2.80408 -0.98944,-4.79309 0.82457,-6.90975 l 0.92453,-1.07878 1.1352,0.80302 c 1.57236,1.11225 3.16912,1.96581 4.79956,2.56561 1.37187,0.5047 1.42089,0.50934 5.45582,0.51756 3.71054,0.008 4.18413,0.0436 5.34169,0.4068 4.83868,1.51808 8.89211,6.22595 12.71982,14.77345 1.13011,2.52362 2.87021,7.08727 3.11584,8.17173 0.10288,0.45423 0.0762,0.48871 -0.35427,0.45816 -0.25603,-0.0182 -0.8686,-0.0587 -1.36125,-0.0901 z M 42.286952,161.05894 c -6.989312,-0.79165 -15.294986,-2.81603 -24.257653,-5.91245 -1.948582,-0.67319 -2.357625,-0.8757 -2.510076,-1.24266 -0.100172,-0.24113 -0.151905,-0.46028 -0.114961,-0.48701 0.03694,-0.0267 1.38634,-1.00477 2.998658,-2.17344 3.3489,-2.4274 5.702834,-3.82464 8.388073,-4.97897 4.66976,-2.00744 10.609684,-3.33861 16.212421,-3.63331 2.936656,-0.15447 3.076309,-0.11148 4.498739,1.3846 3.787773,3.98392 8.608985,6.68123 14.810898,8.28621 1.040674,0.26931 1.983891,0.55185 2.096038,0.62787 0.408739,0.27706 -0.767412,2.4711 -2.107203,3.93087 -1.833875,1.99811 -4.274678,3.25546 -7.825372,4.03118 -1.891954,0.41333 -9.13857,0.51268 -12.189562,0.16711 z m 117.886008,0.0879 c -3.56689,-0.40607 -7.03756,-1.26029 -8.57189,-2.10975 -1.99827,-1.10632 -3.74487,-3.17741 -4.51368,-5.35226 -0.30882,-0.8736 -0.41887,-0.77658 1.35962,-1.19857 6.08879,-1.44468 11.79809,-4.50122 14.82031,-7.93422 0.93941,-1.06711 1.40677,-1.45597 2.02405,-1.68413 1.49677,-0.55323 4.54898,-0.34185 10.02762,0.69447 7.82581,1.4803 14.40082,4.55581 19.27035,9.01383 l 1.43713,1.31568 -0.3782,0.31287 c -0.208,0.17207 -0.63484,0.38988 -0.94855,0.484 -0.31368,0.0941 -1.75651,0.57812 -3.20628,1.07554 -7.83642,2.68876 -14.49171,4.30319 -21.08263,5.1142 -2.68924,0.33092 -8.37838,0.48003 -10.23785,0.26834 z M 71.821153,150.40103 c -10.744302,-1.33017 -22.97367,-8.8594 -31.234196,-19.22989 -3.340047,-4.19319 -6.455753,-9.14344 -8.346109,-13.26035 -0.731416,-1.59292 -0.725856,-1.84595 0.04592,-2.09008 3.108243,-0.9832 8.197728,-1.38933 11.608079,-0.92631 3.547687,0.48167 7.432454,1.72647 10.216236,3.2736 1.007826,0.56012 1.285018,0.94675 2.897097,4.04094 6.065716,11.64245 13.764837,19.53197 23.784409,24.37262 3.181487,1.53704 4.149601,2.11043 3.943993,2.33593 -0.224853,0.24661 -4.607228,1.31639 -6.122399,1.49454 -1.931367,0.22709 -4.908876,0.22226 -6.793037,-0.011 z m 59.633107,0.006 c -2.25858,-0.31828 -5.33289,-1.24437 -5.86203,-1.76584 -0.0747,-0.0736 0.76815,-0.5166 1.8729,-0.9845 6.83322,-2.89408 11.81781,-6.44215 16.9165,-12.04129 3.66037,-4.01966 6.52523,-8.2039 9.48228,-13.84927 1.46745,-2.80155 2.0388,-3.38772 4.28116,-4.39222 6.25512,-2.80205 12.74872,-3.37607 19.41187,-1.71594 0.91737,0.22856 1.71453,0.46666 1.77146,0.52911 0.11238,0.12325 -2.89648,5.54975 -4.67608,8.43332 -2.68393,4.34895 -6.97825,9.61385 -10.56928,12.9581 -3.76583,3.50704 -8.17478,6.59056 -12.40666,8.67695 -3.92165,1.93343 -9.34924,3.69574 -12.83387,4.16707 -1.61571,0.21855 -5.78962,0.20979 -7.38825,-0.0155 z m -12.64786,-5.17101 c -2.26551,-0.21164 -4.62105,-0.98916 -7.13373,-2.3547 -1.58369,-0.86068 -1.66413,-0.76074 1.27076,-1.57903 3.91312,-1.09103 6.74484,-2.68501 9.16872,-5.16108 2.45501,-2.50787 4.44404,-6.07929 5.49859,-9.87305 1.11889,-4.02523 1.20927,-4.16101 3.34746,-5.02841 3.85429,-1.56356 7.4248,-4.05568 12.0006,-8.3761 1.93611,-1.82806 1.97977,-1.79951 1.83782,1.20189 -0.52193,11.03619 -4.8525,20.41403 -12.03733,26.06675 -3.44979,2.71415 -7.85667,4.80636 -10.61424,5.0392 -0.62701,0.0529 -1.32324,0.11822 -1.54718,0.14506 -0.22394,0.0268 -1.03009,-0.009 -1.79147,-0.0805 z m -31.166537,-0.17474 c -5.162485,-0.65731 -10.629134,-4.36795 -14.826596,-10.06395 -3.958837,-5.37219 -6.08462,-11.04169 -6.857649,-18.28946 -0.352935,-3.30905 -0.30344,-5.04269 0.143698,-5.03332 0.10152,0.002 1.28389,1.01526 2.627489,2.25142 3.814788,3.50973 7.172609,5.84634 10.5045,7.30976 1.57477,0.69167 2.030549,0.99791 2.296576,1.54307 0.08207,0.16819 0.408432,1.29438 0.725247,2.50264 1.801307,6.86975 5.780803,12.16933 10.986279,14.63066 1.534084,0.72537 3.655715,1.43291 5.351373,1.78464 l 1.037673,0.21524 -0.386232,0.32126 c -0.212426,0.1767 -0.975154,0.64195 -1.694951,1.03389 -2.915894,1.58777 -6.471433,2.23164 -9.907407,1.79415 z m 15.287647,-7.61497 c -1.42645,-0.13967 -4.247015,-0.81333 -5.519241,-1.31822 -2.156123,-0.85566 -3.741424,-1.97439 -5.417718,-3.82324 -1.296363,-1.4298 -1.598803,-1.88725 -2.316341,-3.50347 -0.453913,-1.02242 -0.992182,-2.58235 -1.196154,-3.4665 -0.33444,-1.4497 -0.369974,-2.01095 -0.361887,-5.71574 0.0066,-3.04706 0.08166,-4.56955 0.290402,-5.89436 1.491954,-9.46905 5.662795,-19.773656 11.748149,-29.025344 1.03305,-1.570558 4.63766,-6.608832 4.72826,-6.608832 0.0219,0 0.73403,0.944438 1.58243,2.098751 8.21401,11.175671 13.12775,22.201035 14.96539,33.579115 0.43601,2.69958 0.5909,7.7372 0.31248,10.16311 -0.8872,7.73048 -5.39902,12.20286 -13.49043,13.37251 -1.69722,0.24534 -3.72035,0.29937 -5.32534,0.14222 z m 45.59391,-21.5337 c -0.007,-5.37834 -0.22306,-8.23866 -0.8641,-11.45211 l -0.27149,-1.36093 -4.64023,3.9838 c -2.55213,2.19109 -4.66061,3.89729 -4.68554,3.79156 -0.0249,-0.10573 0.1711,-1.43684 0.43559,-2.95802 0.95825,-5.51126 0.98786,-6.62862 0.40231,-15.179705 -0.15136,-2.210386 -0.22165,-4.330535 -0.15619,-4.711443 0.1002,-0.583094 0.43256,-1.023253 2.10279,-2.784798 6.84818,-7.222639 13.3279,-12.756346 19.97818,-17.061459 2.16746,-1.40313 5.17646,-3.127948 5.45679,-3.127948 0.45519,0 0.93497,4.826389 0.9322,9.377397 -0.004,5.378125 -0.48583,9.455851 -1.77552,15.003835 -2.23494,9.614247 -6.91135,19.609081 -12.57743,26.881521 -1.10398,1.41696 -4.10274,4.82323 -4.24585,4.82284 -0.0465,-1.3e-4 -0.0876,-2.35117 -0.0915,-5.22454 z m -87.400574,4.3211 C 53.622153,114.52534 45.571207,95.292284 43.70405,78.626456 c -0.276502,-2.467988 -0.274409,-8.25732 0.0037,-10.087982 0.182391,-1.200831 0.765061,-3.631929 0.912373,-3.806736 0.103158,-0.122413 8.456495,5.47615 9.954164,6.671466 4.177289,3.333972 17.189412,15.355005 17.494031,16.161574 0.226415,0.599499 0.186007,1.102312 -0.336745,4.190033 -0.297266,1.755843 -0.364312,2.805483 -0.370803,5.805053 -0.0087,4.033486 0.207596,6.177266 1.052328,10.428466 0.408707,2.05687 0.455825,2.51834 0.276165,2.70484 -0.176749,0.18349 -1.022659,-0.47836 -4.596427,-3.59633 -2.4089,-2.10167 -4.430619,-3.82121 -4.492715,-3.82121 -0.153925,0 -0.607341,2.11437 -0.929083,4.33252 -0.202265,1.39446 -0.269021,3.20019 -0.280576,7.5897 -0.0098,3.71599 -0.07295,5.75686 -0.178024,5.75135 -0.08957,-0.005 -0.580767,-0.32666 -1.09154,-0.71549 z m 19.377043,-3.88827 c -2.144356,-3.57114 -3.267299,-6.29344 -4.101868,-9.94399 -1.717173,-7.511226 -1.183378,-17.682602 1.471692,-28.04292 0.32729,-1.277112 0.614491,-2.347918 0.638224,-2.379571 0.133382,-0.177877 1.655232,1.149985 3.695881,3.224771 7.48016,7.605297 8.983695,9.196072 9.180835,9.713543 0.278829,0.731898 0.245817,0.844723 -1.562696,5.340791 -3.021143,7.510746 -4.321631,11.566686 -6.370655,19.868606 -0.660727,2.67702 -1.23881,4.86473 -1.284631,4.86157 -0.04582,-0.003 -0.795871,-1.19242 -1.666782,-2.6428 z m 46.959701,-0.3488 c -1.30066,-6.21334 -1.82472,-7.9202 -5.73651,-18.683526 -1.8334,-5.044613 -2.58895,-7.332576 -2.58895,-7.839893 0,-0.856733 0.47476,-1.521968 3.57896,-5.014784 2.15569,-2.425575 4.72036,-4.905607 7.41388,-7.169209 l 1.62837,-1.368459 0.2003,0.538375 c 0.39671,1.066298 1.32354,4.621528 1.75094,6.716421 2.20175,10.792039 1.61485,21.884005 -1.54312,29.163635 -0.94678,2.18245 -2.11319,4.07983 -3.29157,5.3543 l -0.86195,0.93224 z M 115.69386,83.225705 c -0.47484,-0.712235 -1.23848,-1.857617 -1.69697,-2.545293 -0.4585,-0.687676 -2.25014,-3.380328 -3.98143,-5.983672 -4.86766,-7.319493 -5.11331,-7.681265 -5.20785,-7.669584 -0.0488,0.006 -1.26123,1.787357 -2.6944,3.958521 -1.43318,2.171164 -3.013689,4.557472 -3.512247,5.302907 -0.498559,0.745435 -1.803851,2.701664 -2.900649,4.347174 -1.096797,1.64551 -2.035816,2.991836 -2.086709,2.991836 -0.141214,0 -1.167496,-1.025653 -4.261939,-4.259337 l -2.827044,-2.954252 0.07152,-0.813977 c 0.165198,-1.880061 3.689424,-10.405267 6.391235,-15.460581 1.898688,-3.552604 4.165665,-7.19337 8.118953,-13.039047 1.7938,-2.652463 3.34198,-4.921918 3.44041,-5.043233 0.13639,-0.168127 0.56866,0.29903 1.81806,1.964788 6.70777,8.943164 12.37733,19.088698 15.87418,28.406426 1.44287,3.844676 1.44234,3.849045 -0.77317,6.326335 -0.85936,0.960894 -2.29309,2.651328 -3.18606,3.756521 -0.89298,1.105193 -1.64587,2.009442 -1.67307,2.009442 -0.0272,0 -0.43798,-0.582738 -0.91282,-1.294974 z"
       id="path225"
       sodipodi:nodetypes="sssssssscscsssccssscssscccsssscssccssscssssssssssssssssssssscsscsssssssssssssssssssssssssssssssssssssccssssscsssssscsssssssssssscsssssscsssssssscsssssssssssscsssssscsssssssssscsssssscsssscsssssssssscsssscsssss" /></g></svg>
